<svg height="512" viewBox="0 0 64 64" width="512" xmlns="http://www.w3.org/2000/svg"><path d="m57 41a13.39 13.39 0 0 1 -.34 3 13.24 13.24 0 0 1 -.61 2c-2.66 6.97-10.05 11-10.05 11v4h-28v-4s-7.39-4.03-10.05-11a13.24 13.24 0 0 1 -.61-2 13.39 13.39 0 0 1 -.34-3z" fill="#87cee9"/><path d="m18 56h14v2h-14z" fill="#2d75bb"/><path d="m41 56h5v2h-5z" fill="#2d75bb"/><g fill="#fcf05a"><path d="m20 44v2h-12.05a13.24 13.24 0 0 1 -.61-2z"/><path d="m22 44h2v2h-2z"/><path d="m26 44h2v2h-2z"/><path d="m30 44h2v2h-2z"/><path d="m56.66 44a13.24 13.24 0 0 1 -.61 2h-22.05v-2z"/></g><path d="m47 41h5l5-21-4-1z" fill="#cfdfe8"/><path d="m33.362 19c-.151-.05-3.684-1.271-3.684-4.949h2a3.438 3.438 0 0 0 2.322 3.049z" fill="#55b56a"/><path d="m31 28a2.985 2.985 0 0 0 -4.08-2.792 4.98 4.98 0 0 0 -9.84 0 2.985 2.985 0 0 0 -4.08 2.792c0 1 4 13 4 13h11s3-12.718 3-13z" fill="#b459a1"/><path d="m20 28h-2a2 2 0 0 0 -2-2v-2a4 4 0 0 1 4 4z" fill="#5e2c81"/><path d="m26 28h-2a4 4 0 0 1 4-4v2a2 2 0 0 0 -2 2z" fill="#5e2c81"/><path d="m18 30h2v2h-2z" fill="#f4f4e6"/><path d="m23 32h2v2h-2z" fill="#f4f4e6"/><path d="m42 35h2a0 0 0 0 1 0 0v2a4 4 0 0 1 -4 4h-2a0 0 0 0 1 0 0v-2a4 4 0 0 1 4-4z" fill="#55b56a" transform="matrix(-1 0 0 -1 82 76)"/><path d="m11 35h2a4 4 0 0 1 4 4v2a0 0 0 0 1 0 0h-2a4 4 0 0 1 -4-4v-2a0 0 0 0 1 0 0z" fill="#55b56a"/><path d="m25 37a4 4 0 0 0 -4 4h8a4 4 0 0 0 -4-4z" fill="#c8d952"/><path d="m33 37a4 4 0 0 0 -4 4h8a4 4 0 0 0 -4-4z" fill="#8ec13f"/><path d="m17 9c1.953-1.032 5.06-.778 6 1s-.047 4.968-2 6c-2.652 1.4-10 1-10 1s3.348-6.6 6-8z" fill="#c8d952"/><path d="m39 3h2a6 6 0 0 1 6 6 0 0 0 0 1 0 0h-2a6 6 0 0 1 -6-6 0 0 0 0 1 0 0z" fill="#55b56a" transform="matrix(-1 0 0 -1 86 12)"/><circle cx="33" cy="7" fill="#e97424" r="2"/><circle cx="47" cy="16" fill="#e97424" r="2"/><path d="m37 29h2v2h-2z" fill="#fcf05a"/><path d="m40 12h2v2h-2z" fill="#fcf05a"/><path d="m24 3h2v2h-2z" fill="#fcf05a"/><path d="m45 25h2v2h-2z" fill="#fcf05a"/><path d="m42 24s-1.1-1.53-3-4-4.876-4.715-7-3 .576 5.094 4 6a30.329 30.329 0 0 0 6 1z" fill="#e1462b"/></svg>